<svg width="100" height="268" viewBox="0 0 100 268" fill="none" xmlns="http://www.w3.org/2000/svg">
<path d="M48.3093 122.735C52.7283 128.924 57.3204 135.537 57.7072 143.114C58.2852 154.76 48.9692 164.286 44.8095 175.181C43.0067 179.98 42.1908 185.094 42.4105 190.216C42.6303 195.338 43.8812 200.363 46.0884 204.99C48.1181 209.186 51.0126 213.355 50.6394 218.002C50.4255 220.837 49.0056 223.417 47.8633 226.025C45.0597 232.561 43.8363 239.665 44.2926 246.762C44.7488 253.859 46.8718 260.748 50.4893 266.871" stroke="#535461" stroke-width="2" stroke-miterlimit="10"/>
<path d="M43.6764 126.203H55.7275L53.6159 118.976H46.3888L43.6764 126.203Z" fill="#8B69D4"/>
<path d="M0.00455735 50C0.00455735 77.6157 22.3911 118.07 50.0023 118.07C77.6134 118.07 100 77.6112 100 50C100 36.7392 94.7322 24.0215 85.3553 14.6447C75.9785 5.26784 63.2608 0 50 0C36.7392 0 24.0215 5.26784 14.6447 14.6447C5.26784 24.0215 1.86703e-06 36.7392 1.86703e-06 50H0.00455735Z" fill="#8B69D5"/>
<path d="M46.3889 119.276H53.6159L57.8347 116.864H42.17L46.3889 119.276Z" fill="#535461"/>
</svg>
