<svg width="126" height="279" viewBox="0 0 126 279" fill="none" xmlns="http://www.w3.org/2000/svg">
<path d="M65.1812 152.861C67.4226 160.137 64.0435 168.738 57.4843 172.567C54.7309 174.171 51.5622 174.979 48.8942 176.72C43.0973 180.497 40.8104 187.728 38.9274 194.383C36.7656 202.035 34.5982 210.124 36.5779 217.821C37.8408 222.731 40.7137 227.071 42.3464 231.873C43.7119 235.894 44.1875 240.165 43.7401 244.388C43.5012 246.629 42.9437 248.939 41.4077 250.612C39.1891 253.001 35.6165 253.359 32.4081 253.934C25.6248 255.217 19.2423 258.089 13.7838 262.315C8.32525 266.542 3.94625 272.002 1.00587 278.248" stroke="#535461" stroke-width="2" stroke-miterlimit="10"/>
<path d="M55.5955 157.753H70.6594L68.0198 148.719H58.986L55.5955 157.753Z" fill="#F55F44"/>
<path d="M1.00569 62.5C1.00569 97.0196 28.9889 147.587 63.5028 147.587C98.0168 147.587 126 97.0139 126 62.5C126 45.924 119.415 30.0268 107.694 18.3058C95.9732 6.5848 80.076 0 63.5 0C46.924 0 31.0268 6.5848 19.3058 18.3058C7.5848 30.0268 1 45.924 1 62.5H1.00569Z" fill="#F55F44"/>
<path d="M58.9859 149.095H68.0197L73.2932 146.086H53.7124L58.9859 149.095Z" fill="#535461"/>
<path opacity="0.1" d="M86.0931 13.929C86.0931 13.929 112.449 28.2363 116.215 56.851Z" fill="white"/>
</svg>
