<svg width="100" height="268" viewBox="0 0 100 268" fill="none" xmlns="http://www.w3.org/2000/svg">
<path d="M51.6907 122.735C47.2717 128.924 42.6796 135.537 42.2928 143.114C41.7148 154.76 51.0308 164.286 55.1905 175.181C56.9933 179.98 57.8092 185.094 57.5895 190.216C57.3697 195.338 56.1188 200.363 53.9116 204.99C51.8819 209.186 48.9874 213.355 49.3606 218.002C49.5745 220.837 50.9944 223.417 52.1367 226.025C54.9403 232.561 56.1637 239.665 55.7074 246.762C55.2512 253.859 53.1282 260.748 49.5107 266.871" stroke="#535461" stroke-width="2" stroke-miterlimit="10"/>
<path d="M56.3236 126.203H44.2725L46.3841 118.976H53.6112L56.3236 126.203Z" fill="#E82C2C"/>
<path d="M99.9954 50C99.9954 77.6157 77.6089 118.07 49.9977 118.07C22.3866 118.07 0 77.6112 0 50C0 36.7392 5.26784 24.0215 14.6447 14.6447C24.0215 5.26784 36.7392 0 50 0C63.2608 0 75.9785 5.26784 85.3553 14.6447C94.7322 24.0215 100 36.7392 100 50H99.9954Z" fill="#E82C2C"/>
<path d="M53.6111 119.276H46.3841L42.1653 116.864H57.83L53.6111 119.276Z" fill="#535461"/>
</svg>
