<svg width="120" height="258" viewBox="0 0 120 258" fill="none" xmlns="http://www.w3.org/2000/svg">
<path d="M61.3025 146.594L58.7357 167.516C58.3971 170.295 58.1077 173.326 59.5986 175.707C61.0131 177.952 63.6672 179.022 65.7316 180.683C72.509 186.144 71.8919 196.58 69.5545 204.958C67.2171 213.335 63.8529 222.336 67.1024 230.396C68.4458 233.722 70.816 236.524 72.5636 239.648C75.5618 244.986 76.7498 251.152 75.9496 257.222" stroke="#535461" stroke-width="2" stroke-miterlimit="10"/>
<path d="M52.4063 151.449H66.8677L64.3336 142.771H55.6612L52.4063 151.449Z" fill="#62D23A"/>
<path d="M4.85982e-06 60C4.85982e-06 93.1389 26.8639 141.684 59.9973 141.684C93.1307 141.684 120 93.1389 120 60C120 44.087 113.679 28.8258 102.426 17.5736C91.1742 6.32142 75.913 0 60 0C44.087 0 28.8258 6.32142 17.5736 17.5736C6.32141 28.8258 4.85982e-06 44.087 4.85982e-06 60V60Z" fill="#62D23A"/>
<path d="M55.6611 143.131H64.3336L69.3961 140.242H50.5985L55.6611 143.131Z" fill="#535461"/>
<path opacity="0.1" d="M81.684 13.3719C81.684 13.3719 106.986 27.1069 110.601 54.577Z" fill="white"/>
</svg>
