<svg width="122" height="270" viewBox="0 0 122 270" fill="none" xmlns="http://www.w3.org/2000/svg">
<path d="M58.8726 147.969C56.7029 155.012 59.9739 163.339 66.3232 167.045C68.9885 168.598 72.0558 169.38 74.6384 171.065C80.2498 174.721 82.4636 181.72 84.2863 188.163C86.3789 195.57 88.4769 203.4 86.5606 210.851C85.3381 215.603 82.5572 219.805 80.9767 224.453C79.6549 228.346 79.1945 232.479 79.6276 236.568C79.8589 238.737 80.3985 240.973 81.8853 242.592C84.033 244.905 87.4912 245.252 90.597 245.808C97.1632 247.05 103.342 249.83 108.625 253.921C113.909 258.012 118.148 263.298 120.994 269.344" stroke="#535461" stroke-width="2" stroke-miterlimit="10"/>
<path d="M68.1517 152.705H53.5698L56.125 143.96H64.8697L68.1517 152.705Z" fill="#F5E344"/>
<path d="M120.994 60.5C120.994 93.915 93.9068 142.865 60.4973 142.865C27.0878 142.865 0 93.9095 0 60.5C3.38136e-07 44.4544 6.37409 29.066 17.72 17.72C29.066 6.37409 44.4544 0 60.5 0C76.5456 0 91.934 6.37409 103.28 17.72C114.626 29.066 121 44.4544 121 60.5H120.994Z" fill="#F5E344"/>
<path d="M64.8695 144.324H56.1248L51.02 141.411H69.9743L64.8695 144.324Z" fill="#535461"/>
<path opacity="0.1" d="M38.63 13.4833C38.63 13.4833 13.1172 27.3328 9.47168 55.0318Z" fill="white"/>
</svg>
