<svg width="119" height="319" viewBox="0 0 119 319" fill="none" xmlns="http://www.w3.org/2000/svg">
<path d="M61.512 146.054C56.2533 153.42 50.7888 161.289 50.3284 170.306C49.6406 184.165 60.7267 195.5 65.6767 208.465C67.822 214.176 68.793 220.262 68.5315 226.357C68.27 232.452 66.7814 238.432 64.1548 243.938C61.7394 248.932 58.295 253.892 58.7391 259.422C58.9936 262.796 60.6833 265.867 62.0427 268.97C65.379 276.747 66.8348 285.201 66.2919 293.647C65.7489 302.092 63.2226 310.29 58.9178 317.576" stroke="#535461" stroke-width="2" stroke-miterlimit="10"/>
<path d="M67.0252 150.181H52.6843L55.1972 141.581H63.7974L67.0252 150.181Z" fill="#F04DE0"/>
<path d="M118.995 59.5C118.995 92.3627 92.3546 140.503 59.4973 140.503C26.64 140.503 0 92.3573 0 59.5C0 43.7196 6.26873 28.5856 17.4271 17.4271C28.5856 6.26873 43.7196 0 59.5 0C75.2804 0 90.4144 6.26873 101.573 17.4271C112.731 28.5856 119 43.7196 119 59.5H118.995Z" fill="#F04DE0"/>
<path d="M63.7973 141.938H55.1971L50.1768 139.068H68.8177L63.7973 141.938Z" fill="#535461"/>
</svg>
