<svg width="126" height="279" viewBox="0 0 126 279" fill="none" xmlns="http://www.w3.org/2000/svg">
<path d="M60.8188 152.861C58.5774 160.137 61.9565 168.738 68.5157 172.567C71.2691 174.171 74.4378 174.979 77.1058 176.72C82.9027 180.497 85.1896 187.728 87.0726 194.383C89.2344 202.035 91.4018 210.124 89.4221 217.821C88.1592 222.731 85.2863 227.071 83.6536 231.873C82.2881 235.894 81.8125 240.165 82.2599 244.388C82.4988 246.629 83.0563 248.939 84.5923 250.612C86.8109 253.001 90.3835 253.359 93.5919 253.934C100.375 255.217 106.758 258.089 112.216 262.315C117.675 266.542 122.054 272.002 124.994 278.248" stroke="#535461" stroke-width="2" stroke-miterlimit="10"/>
<path d="M70.4045 157.753H55.3406L57.9802 148.719H67.014L70.4045 157.753Z" fill="#4456F5"/>
<path d="M124.994 62.5C124.994 97.0196 97.0111 147.587 62.4972 147.587C27.9832 147.587 0 97.0139 0 62.5C3.49314e-07 45.924 6.5848 30.0268 18.3058 18.3058C30.0268 6.5848 45.924 0 62.5 0C79.076 0 94.9732 6.5848 106.694 18.3058C118.415 30.0268 125 45.924 125 62.5H124.994Z" fill="#4456F5"/>
<path d="M67.0141 149.095H57.9803L52.7068 146.086H72.2876L67.0141 149.095Z" fill="#535461"/>
<path opacity="0.1" d="M39.9069 13.929C39.9069 13.929 13.5507 28.2363 9.78467 56.851Z" fill="white"/>
</svg>
