<svg width="96" height="206" viewBox="0 0 96 206" fill="none" xmlns="http://www.w3.org/2000/svg">
<path d="M46.7794 116.829L48.825 133.503C49.0948 135.718 49.3255 138.134 48.1373 140.031C47.01 141.82 44.8948 142.673 43.2496 143.996C37.8483 148.349 38.3401 156.666 40.2029 163.343C42.0657 170.019 44.7468 177.192 42.1571 183.616C41.0865 186.267 39.1975 188.499 37.8048 190.989C35.4153 195.243 34.4685 200.157 35.1063 204.995" stroke="#535461" stroke-width="2" stroke-miterlimit="10"/>
<path d="M53.8694 120.698H42.3442L44.3637 113.782H51.2753L53.8694 120.698Z" fill="#3AD29F"/>
<path d="M95.6349 47.8174C95.6349 74.2277 74.2255 112.916 47.8196 112.916C21.4137 112.916 0 74.2277 0 47.8174C0 35.1355 5.03789 22.9729 14.0054 14.0054C22.9729 5.0379 35.1355 0 47.8174 0C60.4994 0 72.662 5.0379 81.6295 14.0054C90.597 22.9729 95.6349 35.1355 95.6349 47.8174V47.8174Z" fill="#3AD29F"/>
<path d="M51.2753 114.069H44.3637L40.3291 111.767H55.31L51.2753 114.069Z" fill="#535461"/>
<path opacity="0.1" d="M30.5363 10.6568C30.5363 10.6568 10.3718 21.6031 7.49048 43.4955Z" fill="white"/>
</svg>
